<?xml version="1.0" encoding="UTF-8" standalone="no"?>
<svg width="161px" height="158px" viewBox="0 0 161 158" version="1.1" xmlns="http://www.w3.org/2000/svg" xmlns:xlink="http://www.w3.org/1999/xlink">
    <!-- Generator: Sketch 48.2 (47327) - http://www.bohemiancoding.com/sketch -->
    <title>Page 1</title>
    <desc>Created with Sketch.</desc>
    <defs>
        <polygon id="path-1" points="0.0770331546 0.169296552 47.7537619 0.169296552 47.7537619 47.8956804 0.0770331546 47.8956804"></polygon>
    </defs>
    <g id="Homepage" stroke="none" stroke-width="1" fill="none" fill-rule="evenodd" transform="translate(-60.000000, -51.000000)">
        <g id="Page-1" transform="translate(60.000000, 51.000000)">
            <polygon id="Fill-1" fill="#FEFEFE" points="11.7758835 140 11.7758835 148.330128 1.22411652 148.330128 1.22411652 140 0 140 0 158 1.22411652 158 1.22411652 149.565705 11.7758835 149.565705 11.7758835 158 13 158 13 140"></polygon>
            <polygon id="Fill-2" fill="#FEFEFE" points="62.4783024 140 56.0244695 149.669872 49.5951061 140 48 140 55.3622634 150.878205 55.3622634 158 56.6377366 158 56.6377366 150.850962 64 140"></polygon>
            <path d="M98,140 L103.777194,140 C109.231459,140 113,143.883013 113,148.948718 L113,149 C113,154.065705 109.231459,158 103.777194,158 L98,158 L98,140 Z M103.777194,156.766026 C108.611867,156.766026 111.661928,153.346154 111.661928,149.051282 L111.661928,149 C111.661928,144.732372 108.611867,141.233974 103.777194,141.233974 L99.2886279,141.233974 L99.2886279,156.766026 L103.777194,156.766026 Z" id="Fill-3" fill="#FEFEFE"></path>
            <polygon id="Fill-5" fill="#FEFEFE" points="148 140 148 158 161 158 161 156.766026 149.343328 156.766026 149.343328 149.540064 159.708215 149.540064 159.708215 148.304487 149.343328 148.304487 149.343328 141.233974 159.999752 141.233974 160.871144 140"></polygon>
            <polygon id="Fill-6" fill="#FEFEFE" points="52.4836155 0 51.5581437 1.31491642 95.4648741 1.31491642 11.3834616 120.71312 11.3834616 0 0.922296914 0 0 1.31491642 10.0643071 1.31491642 10.0643071 123 11.3834616 123 11.3834616 123 98 0"></polygon>
            <g id="Group-9" transform="translate(113.000000, 0.000000)">
                <mask id="mask-2" fill="white">
                    <use xlink:href="#path-1"></use>
                </mask>
                <g id="Clip-8"></g>
                <path d="M23.9160247,47.8956804 C10.7712627,47.8956804 0.0770331546,37.1905592 0.0770331546,24.03241 C0.0770331546,10.8742608 10.7712627,0.169139608 23.9160247,0.169139608 C37.0607866,0.169139608 47.7550161,10.8742608 47.7550161,24.03241 C47.7550161,37.1905592 37.0607866,47.8956804 23.9160247,47.8956804 M23.9160247,1.50159055 C11.5050114,1.50159055 1.40812844,11.6087567 1.40812844,24.03241 C1.40812844,36.4560633 11.5050114,46.5632294 23.9160247,46.5632294 C36.3270379,46.5632294 46.4239209,36.4560633 46.4239209,24.03241 C46.4239209,11.6087567 36.3270379,1.50159055 23.9160247,1.50159055" id="Fill-7" fill="#FEFEFE" mask="url(#mask-2)"></path>
            </g>
            <polygon id="Fill-10" fill="#FEFEFE" points="155.943696 36 157 36.7539241 97.6015432 122.963647 96 123"></polygon>
        </g>
    </g>
</svg>